Black.2012.DVDRip.x264-miRaGe


Information:
_______

info: http://www.familyvideo.com/catalog/product_info.php?products_id=399547
release date: 4/3/2012
plot: When an armored car holdup goes horribly awry, Black, a bank robber from the wrong side of town, considers getting out of the game. While laying low, Black receives news from his cousin about a stash of uncut diamonds in a poorly guarded bank, and his plan to live on the straight and narrow grinds to a halt. With an opportunity that is too good to refuse, he puts together a crew and embarks on one last job before getting out for good.


General:
_______

Complete name : Black.2012.DVDRip.x264-miRaGe.mp4
Format : MPEG-4
Format profile : Base Media / Version 2
Codec ID : mp42
File size : 701 MiB
Duration : 1h 51mn
Overall bit rate mode : Variable
Overall bit rate : 880 Kbps


Video:
_____

ID : 1
Format : AVC
Format/Info : Advanced Video Codec
Format profile : Main@L3.0
Format settings, CABAC : Yes
Format settings, ReFrames : 2 frames
Codec ID : avc1
Codec ID/Info : Advanced Video Coding
Duration : 1h 51mn
Duration_FirstFrame : 33ms
Bit rate mode : Variable
Bit rate : 716 Kbps
Width : 718 pixels
Height : 368 pixels
Display aspect ratio : 2.35:1
Frame rate mode : Constant
Frame rate : 29.970 fps
Color space : YUV
Chroma subsampling : 4:2:0
Bit depth : 8 bits
Scan type : Progressive
Bits/(Pixel*Frame) : 0.090
Stream size : 570 MiB (81%)
Writing library : x264 core 79


Audio
_____

ID : 2
Format : AAC
Format/Info : Advanced Audio Codec
Format profile : LC
Codec ID : 40
Duration : 1h 51mn
Bit rate mode : Variable
Bit rate : 160 Kbps
Maximum bit rate : 201 Kbps
Channel(s) : 2 channels
Channel positions : Front: L R
Sampling rate : 48.0 KHz
Compression mode : Lossy
Stream size : 127 MiB (18%)
Language : English


Poster:

 
http://i.imgur.com/X53uI.jpg


Screenshots:

 
http://i.imgur.com/ONojD.jpg


ENJOY!